<svg width="62" height="63" viewBox="0 0 62 63" fill="none" xmlns="http://www.w3.org/2000/svg">
<path d="M61.2066 31.4275C61.2066 25.2117 59.4117 19.1355 56.049 13.9673C52.6862 8.79909 47.9067 4.77096 42.3146 2.39229C36.7226 0.013617 30.5693 -0.608752 24.6329 0.603884C18.6964 1.81652 13.2434 4.8097 8.9635 9.2049C4.68356 13.6001 1.76888 19.2 0.588047 25.2963C-0.592787 31.3926 0.0132599 37.7116 2.32955 43.4542C4.64584 49.1969 8.56834 54.1052 13.601 57.5585C18.6337 61.0117 24.5505 62.8549 30.6033 62.8549C34.6223 62.8553 38.602 62.0427 42.3151 60.4635C46.0282 58.8842 49.4021 56.5693 52.2439 53.6509C55.0858 50.7326 57.34 47.2679 58.8778 43.4547C60.4156 39.6416 61.2069 35.5547 61.2066 31.4275Z" fill="#B7ECB1"/>
<path d="M13.0333 24.7617H14.6956L9.76235 36.7967H9.38402L4.35547 24.7617H6.03562L9.54489 33.1777L13.0333 24.7617Z" fill="#91BD9D"/>
<path d="M19.5658 31.9997V35.3649C19.5658 35.6341 19.6551 35.7687 19.8339 35.7687C20.1521 35.7084 20.4491 35.5627 20.6948 35.3465V36.301C20.4324 36.4821 20.1541 36.6378 19.8637 36.766C19.6546 36.849 19.4324 36.8916 19.2083 36.8914C18.5569 36.8914 18.1726 36.6283 18.0554 36.1022C17.4725 36.5926 16.7444 36.8645 15.991 36.8731C15.7437 36.8802 15.4976 36.8357 15.2676 36.742C15.0377 36.6484 14.8287 36.5077 14.6534 36.3285C14.4774 36.1508 14.3391 35.9375 14.2473 35.7021C14.1556 35.4668 14.1122 35.2145 14.1201 34.9611C14.1193 34.4639 14.3062 33.9858 14.6415 33.6272C15.0562 33.1992 15.568 32.8838 16.131 32.7095L18.0763 32.0211V31.602C18.0763 30.6537 17.6145 30.1764 16.691 30.1764C15.8589 30.1764 15.0516 30.617 14.2691 31.498V29.7695C14.8649 29.0578 15.7139 28.7009 16.8161 28.6988C17.5373 28.6658 18.2452 28.9052 18.8061 29.3718C19.1749 29.7069 19.4235 30.1593 19.5121 30.6567C19.5578 31.1048 19.5757 31.5554 19.5658 32.0058V31.9997ZM18.0763 35.1905V32.8471L17.0574 33.2509C16.6557 33.3925 16.283 33.6093 15.9582 33.8903C15.758 34.106 15.6464 34.3924 15.6464 34.6903C15.6464 34.9882 15.758 35.2747 15.9582 35.4903C16.0629 35.5933 16.1868 35.6735 16.3225 35.7261C16.4581 35.7787 16.6027 35.8025 16.7476 35.7962C16.9999 35.7909 17.2486 35.7341 17.4793 35.6291C17.71 35.524 17.918 35.3729 18.0911 35.1844" fill="#91BD9D"/>
<path d="M23.5945 24.7617H22.0752V36.7478H23.5945V24.7617Z" fill="#91BD9D"/>
<path d="M35.2802 24.7617H36.8442V36.7447H35.164V27.4202L31.5743 32.0519H31.2675L27.6361 27.4202V36.7447H25.9648V24.7617H27.5467L31.4253 29.684L35.2802 24.7617Z" fill="#91BD9D"/>
<path d="M43.9797 32V35.3651C43.9797 35.6343 44.0661 35.7689 44.2448 35.7689C44.563 35.7086 44.86 35.563 45.1057 35.3468V36.3012C44.8433 36.4824 44.5651 36.638 44.2746 36.7662C44.0656 36.8495 43.8434 36.8921 43.6192 36.8917C42.9678 36.8917 42.5835 36.6286 42.4663 36.1024C41.8835 36.5928 41.1554 36.8647 40.4019 36.8733C40.1551 36.8808 39.9093 36.8363 39.6798 36.7427C39.4503 36.649 39.2419 36.5082 39.0673 36.3288C38.8908 36.1513 38.7519 35.9381 38.6597 35.7027C38.5674 35.4674 38.5236 35.2149 38.5311 34.9613C38.5303 34.4642 38.7171 33.9861 39.0524 33.6275C39.4671 33.1994 39.979 32.884 40.5419 32.7097L42.4902 32.0214V31.6023C42.4902 30.6539 42.0255 30.1766 41.102 30.1766C40.2698 30.1766 39.4625 30.6172 38.68 31.4982V29.7698C39.2758 29.058 40.1249 28.7011 41.2271 28.699C41.9496 28.6622 42.66 28.8996 43.223 29.366C43.4054 29.528 43.5586 29.7216 43.6758 29.938C43.8029 30.1573 43.8888 30.399 43.929 30.6508C43.9762 31.0988 43.9951 31.5495 43.9856 32H43.9797ZM42.4961 35.1846V32.8412L41.4743 33.2451C41.0738 33.3872 40.7022 33.604 40.3781 33.8844C40.1748 34.0973 40.0595 34.3826 40.0562 34.6807C40.0528 34.9789 40.1618 35.2668 40.3602 35.4844C40.4651 35.5871 40.589 35.6672 40.7247 35.7197C40.8603 35.7723 41.0048 35.7963 41.1496 35.7903C41.4023 35.7848 41.6514 35.7278 41.8825 35.6228C42.1136 35.5178 42.3222 35.3668 42.4961 35.1785" fill="#91BD9D"/>
<path d="M48.0772 28.8518V30.6629L48.1606 30.5252C48.8974 29.3015 49.6332 28.6897 50.368 28.6897C50.94 28.6897 51.5358 28.9864 52.1555 29.5799L51.3541 30.9535C50.8238 30.4396 50.3333 30.1826 49.8825 30.1826C49.6293 30.1884 49.3813 30.2568 49.1594 30.382C48.9374 30.5071 48.7481 30.6853 48.6075 30.9015C48.2457 31.392 48.0557 31.9934 48.0683 32.6086V36.7447H46.54V28.8518H48.0772Z" fill="#91BD9D"/>
<path d="M54.0126 25.5326C54.1317 25.5307 54.25 25.5533 54.3605 25.599C54.471 25.6447 54.5715 25.7126 54.6561 25.7988C54.7416 25.8827 54.8094 25.984 54.855 26.0961C54.9006 26.2082 54.9232 26.3289 54.9212 26.4504C54.9166 26.6923 54.821 26.923 54.6544 27.0941C54.4878 27.2653 54.2631 27.3635 54.0275 27.3682C53.9111 27.3684 53.7959 27.3438 53.6892 27.2958C53.5825 27.2479 53.4866 27.1777 53.4078 27.0898C53.3229 27.0058 53.2554 26.905 53.2094 26.7936C53.1633 26.6821 53.1395 26.5623 53.1396 26.4412C53.1402 26.3216 53.1643 26.2033 53.2104 26.0935C53.2565 25.9836 53.3235 25.8844 53.4078 25.8018C53.4866 25.7139 53.5825 25.6437 53.6892 25.5958C53.7959 25.5478 53.9111 25.5232 54.0275 25.5234L54.0126 25.5326ZM53.2589 28.8519H54.7812V36.7447H53.2589V28.8519Z" fill="#91BD9D"/>
<path d="M13.3615 24.4556H15.0238L10.0905 36.4906H9.71218L4.68066 24.4556H6.36379L9.87305 32.8715L13.3615 24.4556Z" fill="white"/>
<path d="M19.8938 31.6938V35.059C19.8938 35.3282 19.9832 35.4628 20.1619 35.4628C20.4799 35.4019 20.7768 35.2563 21.0228 35.0406V35.9951C20.7604 36.1762 20.4822 36.3319 20.1917 36.4601C19.9816 36.5432 19.7584 36.5857 19.5333 36.5855C18.8839 36.5855 18.4996 36.3224 18.3805 35.7962C17.799 36.2871 17.0716 36.5591 16.319 36.5672C16.0717 36.5745 15.8256 36.53 15.5956 36.4364C15.3656 36.3428 15.1566 36.202 14.9814 36.0226C14.8054 35.8449 14.6671 35.6316 14.5754 35.3962C14.4836 35.1609 14.4403 34.9085 14.4482 34.6552C14.4474 34.158 14.6342 33.6799 14.9695 33.3213C15.3842 32.8933 15.8961 32.5779 16.459 32.4036L18.4043 31.7152V31.2961C18.4043 30.3478 17.9425 29.8705 17.0191 29.8705C16.1889 29.8705 15.3806 30.311 14.5942 31.1921V29.4636C15.19 28.7519 16.04 28.3949 17.1442 28.3929C17.8653 28.3599 18.5733 28.5993 19.1341 29.0659C19.3155 29.2281 19.4678 29.4218 19.584 29.638C19.7119 29.8571 19.7988 30.0989 19.8402 30.3508C19.8858 30.7989 19.9037 31.2495 19.8938 31.6999V31.6938ZM18.4043 34.8846V32.5412L17.3855 32.945C16.9837 33.0866 16.611 33.3034 16.2862 33.5844C16.0847 33.7993 15.9721 34.0861 15.9721 34.3844C15.9721 34.6828 16.0847 34.9695 16.2862 35.1844C16.3909 35.2874 16.5148 35.3676 16.6505 35.4202C16.7862 35.4728 16.9308 35.4966 17.0757 35.4903C17.3279 35.4847 17.5765 35.4277 17.8071 35.3227C18.0378 35.2177 18.2458 35.0667 18.4192 34.8785" fill="white"/>
<path d="M23.9187 24.4556H22.3994V36.4416H23.9187V24.4556Z" fill="white"/>
<path d="M35.6083 24.4556H37.1693V36.4386H35.4921V27.114L31.9024 31.7457H31.5926L27.9642 27.114V36.4386H26.293V24.4556H27.8748L31.7535 29.3779L35.6083 24.4556Z" fill="white"/>
<path d="M44.304 31.6939V35.0591C44.304 35.3283 44.3934 35.4629 44.5721 35.4629C44.8903 35.4026 45.1873 35.2569 45.433 35.0407V35.9952C45.1706 36.1763 44.8924 36.332 44.6019 36.4602C44.3928 36.5432 44.1706 36.5858 43.9465 36.5856C43.2951 36.5856 42.9108 36.3225 42.7936 35.7964C42.2108 36.2868 41.4826 36.5587 40.7292 36.5673C40.4819 36.5744 40.2358 36.5299 40.0059 36.4362C39.7759 36.3426 39.5669 36.2019 39.3916 36.0227C39.2156 35.845 39.0773 35.6317 38.9855 35.3963C38.8937 35.161 38.8504 34.9087 38.8583 34.6553C38.8575 34.1581 39.0444 33.68 39.3797 33.3214C39.7944 32.8934 40.3062 32.578 40.8692 32.4037L42.8145 31.7153V31.2962C42.8145 30.3479 42.3527 29.8706 41.4292 29.8706C40.5991 29.8706 39.7918 30.3112 39.0073 31.1922V29.4638C39.6031 28.752 40.4521 28.3951 41.5543 28.393C42.2768 28.3567 42.987 28.5941 43.5503 29.0599C43.9163 29.3973 44.1643 29.8487 44.2563 30.3448C44.302 30.7929 44.3199 31.2435 44.3099 31.6939H44.304ZM42.8204 34.8786V32.5352L41.8016 32.939C41.3999 33.0806 41.0272 33.2974 40.7023 33.5784C40.4988 33.7913 40.3836 34.077 40.3808 34.3753C40.378 34.6737 40.4879 34.9615 40.6875 35.1784C40.7922 35.2814 40.9161 35.3616 41.0517 35.4142C41.1874 35.4668 41.332 35.4906 41.4769 35.4843C41.7291 35.4787 41.9778 35.4217 42.2084 35.3167C42.439 35.2117 42.647 35.0607 42.8204 34.8725" fill="white"/>
<path d="M48.4063 28.5459V30.357L48.4897 30.2193C49.2245 28.9956 49.9603 28.3838 50.6971 28.3838C51.2691 28.3838 51.8649 28.6805 52.4845 29.274L51.6832 30.6476C51.1559 30.1337 50.6644 29.8767 50.2145 29.8767C49.9614 29.8825 49.7134 29.9509 49.4914 30.0761C49.2695 30.2012 49.0802 30.3794 48.9395 30.5956C48.5764 31.0854 48.3863 31.6873 48.4003 32.3027V36.4387H46.8721V28.5459H48.4063Z" fill="white"/>
<path d="M54.3369 25.2267C54.456 25.2248 54.5743 25.2473 54.6848 25.293C54.7953 25.3387 54.8959 25.4067 54.9805 25.4928C55.067 25.5762 55.1356 25.6772 55.1818 25.7895C55.2279 25.9017 55.2507 26.0226 55.2486 26.1444C55.2496 26.2661 55.2263 26.3867 55.1801 26.4988C55.134 26.6108 55.0661 26.712 54.9805 26.7961C54.8966 26.8839 54.7965 26.9535 54.686 27.0008C54.5754 27.0481 54.4566 27.0721 54.3369 27.0714C54.221 27.0712 54.1064 27.0464 54.0003 26.9984C53.8942 26.9505 53.7988 26.8806 53.7202 26.793C53.6354 26.709 53.5679 26.6082 53.5219 26.4968C53.4758 26.3854 53.452 26.2655 53.4521 26.1444C53.4527 26.0248 53.4768 25.9066 53.5229 25.7967C53.569 25.6869 53.636 25.5877 53.7202 25.5051C53.7988 25.4175 53.8942 25.3475 54.0003 25.2996C54.1064 25.2517 54.221 25.2269 54.3369 25.2267ZM53.5863 28.5459H55.1144V36.4387H53.5952L53.5863 28.5459Z" fill="white"/>
</svg>
