<?xml version="1.0" encoding="utf-8"?><svg viewBox="0 0 85 50" xmlns="http://www.w3.org/2000/svg" xmlns:xlink="http://www.w3.org/1999/xlink"><style>:root>svg{display:none}:root>svg:target{display:block}</style><svg fill="none" viewBox="0 0 29 29" id="Instagram" xmlns="http://www.w3.org/2000/svg"><path d="M21.15 0H7.85C3.521 0 0 3.521 0 7.85v13.3C0 25.48 3.521 29 7.85 29h13.3C25.48 29 29 25.479 29 21.15V7.85C29 3.521 25.479 0 21.15 0zM14.5 22.43c-4.372 0-7.93-3.558-7.93-7.93s3.558-7.93 7.93-7.93 7.93 3.558 7.93 7.93-3.558 7.93-7.93 7.93zm8.119-13.99a2.345 2.345 0 01-2.343-2.343 2.346 2.346 0 012.343-2.343 2.346 2.346 0 012.343 2.343 2.346 2.346 0 01-2.343 2.344z" fill="#55A630"/><path d="M14.5 8.27a6.236 6.236 0 00-6.23 6.23 6.237 6.237 0 006.23 6.23 6.236 6.236 0 006.23-6.23 6.236 6.236 0 00-6.23-6.23zM22.619 5.454a.644.644 0 10.002 1.288.644.644 0 00-.002-1.288z" fill="#55A630"/></svg><svg fill="none" viewBox="0 0 44 31" id="bird" xmlns="http://www.w3.org/2000/svg"><path d="M10.577 5.229L0 2.24l10.577.747L16.5 1.494l5.923 4.482 4.654-2.615 5.077.374L41.038 0 39.77 3.735H44L27.923 13.819l.846 5.603 5.923 7.47-5.077-1.868L31.308 31 16.077 9.71V7.47l-5.5-2.241z" fill="#55A630"/></svg><svg fill="none" viewBox="0 0 28 28" id="facebook" xmlns="http://www.w3.org/2000/svg"><path d="M24.5 0h-21C1.57 0 0 1.57 0 3.5v21C0 26.43 1.57 28 3.5 28H14v-9.625h-3.5V14H14v-3.5c0-2.9 2.35-5.25 5.25-5.25h3.5v4.375H21c-.966 0-1.75-.091-1.75.875V14h4.375l-1.75 4.375H19.25V28h5.25c1.93 0 3.5-1.57 3.5-3.5v-21C28 1.57 26.43 0 24.5 0z" fill="#55A630"/></svg><svg fill="none" viewBox="0 0 11 7" id="lang_arrow" xmlns="http://www.w3.org/2000/svg"><path d="M5.5 6.27a.768.768 0 01-.545-.225l-4.73-4.73a.77.77 0 111.09-1.09L5.5 4.412 9.685.226a.77.77 0 011.09 1.09l-4.73 4.729a.768.768 0 01-.545.225z" fill="#55A630"/></svg><svg fill="none" viewBox="0 0 59 8" id="long_arrow" xmlns="http://www.w3.org/2000/svg"><path fill-rule="evenodd" clip-rule="evenodd" d="M55.172.464l3.182 3.182a.5.5 0 010 .708l-3.182 3.182a.5.5 0 11-.707-.708L56.793 4.5H0v-1h56.793l-2.328-2.328a.5.5 0 11.707-.708z" fill="#55A630"/></svg><svg fill="none" viewBox="0 0 15 23" id="next_arrow" xmlns="http://www.w3.org/2000/svg"><path d="M14.008 10.006c.644.568.675 1.517.07 2.12l-9.863 9.837a1.676 1.676 0 01-2.261.066 1.435 1.435 0 01-.07-2.12l8.766-8.744-9.326-8.219a1.435 1.435 0 01-.07-2.12A1.676 1.676 0 013.516.76l10.492 9.246zM12.962 12.6l-3.2.092 2.583-.564.518-2.527.099 2.999z" fill="#424242"/></svg><svg fill="none" viewBox="0 0 15 23" id="prev_arrow" xmlns="http://www.w3.org/2000/svg"><path d="M.992 10.006a1.435 1.435 0 00-.07 2.12l9.862 9.837a1.676 1.676 0 002.262.066 1.435 1.435 0 00.07-2.12L4.35 11.165l9.327-8.219a1.435 1.435 0 00.07-2.12A1.676 1.676 0 0011.484.76L.992 10.006zM2.038 12.6l3.2.092-2.583-.564L2.137 9.6 2.038 12.6z" fill="#424242"/></svg><svg fill="none" viewBox="0 0 29 28" id="tel" xmlns="http://www.w3.org/2000/svg"><path d="M28.446 22.265l-3.104-2.07-2.76-1.84a1.222 1.222 0 00-1.641.267l-1.708 2.195a1.216 1.216 0 01-1.552.322c-1.159-.644-2.529-1.251-5.552-4.278-3.023-3.027-3.634-4.393-4.278-5.552a1.216 1.216 0 01.322-1.552l2.195-1.708c.505-.393.62-1.108.267-1.64L8.852 3.733 6.726.544A1.222 1.222 0 005.08.174L2.628 1.645a2.996 2.996 0 00-1.36 1.76C.598 5.85.462 11.244 9.105 19.887c8.642 8.643 14.035 8.507 16.48 7.837.74-.211 1.37-.698 1.76-1.36l1.471-2.453a1.222 1.222 0 00-.37-1.645zM16.92 4.345a8.216 8.216 0 018.206 8.207.483.483 0 00.966 0 9.182 9.182 0 00-9.172-9.173.483.483 0 000 .966z" fill="#55A630"/><path d="M16.92 7.24a5.316 5.316 0 015.311 5.311.483.483 0 10.966 0 6.283 6.283 0 00-6.276-6.276.483.483 0 100 .966z" fill="#55A630"/><path d="M16.92 10.138a2.417 2.417 0 012.413 2.414.483.483 0 00.966 0 3.383 3.383 0 00-3.38-3.38.483.483 0 000 .966z" fill="#55A630"/></svg><svg fill="none" viewBox="0 0 85 8" id="white_arrow" xmlns="http://www.w3.org/2000/svg"><path fill-rule="evenodd" clip-rule="evenodd" d="M81.172.464l3.181 3.182a.5.5 0 010 .708l-3.181 3.182a.5.5 0 11-.707-.708L82.793 4.5H0v-1h82.793l-2.329-2.328a.5.5 0 11.708-.708z" fill="#fff"/></svg><svg viewBox="0 0 50 50" id="znak" xmlns="http://www.w3.org/2000/svg"><path d="M16.764 18.85a4.674 4.674 0 004.67-4.669 4.674 4.674 0 00-4.67-4.668 4.674 4.674 0 00-4.668 4.668 4.674 4.674 0 004.668 4.67zm0-6.408c.96 0 1.74.78 1.74 1.74 0 .959-.78 1.739-1.74 1.739-.959 0-1.739-.78-1.739-1.74 0-.958.78-1.738 1.74-1.738z"/><path d="M27.098 14.182c0-5.2-3.862-9.515-8.868-10.229V0H15.3v3.953c-5.006.714-8.868 5.028-8.868 10.229l.002 13.258H3.419v2.93h3.015V42.92l5.86 4.16V50h2.929V30.37h3.084V50h2.93v-2.92l5.859-4.161V30.37h3.015v-2.93h-3.015l.002-13.258zM16.765 6.779c4.082 0 7.403 3.32 7.403 7.403 0 4.082-3.321 7.403-7.403 7.403-4.082 0-7.403-3.321-7.403-7.403 0-4.082 3.32-7.403 7.403-7.403zM9.364 41.406V21.384a10.384 10.384 0 002.93 2.112v19.99l-2.93-2.08zm5.859-13.965v-3.042a10.371 10.371 0 003.084 0v3.041h-3.084zm6.013 16.045v-19.99a10.384 10.384 0 002.93-2.112v20.022l-2.93 2.08zM33.477 0v50h13.107V0H33.477zm10.177 47.07h-7.247v-3.085h3.623v-2.93h-3.623v-2.93h3.623v-2.929h-3.623v-2.93h3.623v-2.93h-3.623v-2.929h3.623v-2.93h-3.623v-2.93h3.623v-2.929h-3.623v-2.93h3.623v-2.93h-3.623v-2.93h3.623V5.9h-3.623V2.93h7.247V47.07z"/></svg><svg fill="none" viewBox="0 0 28 28" id="иконка_facebook" xmlns="http://www.w3.org/2000/svg"><path d="M24.5 0h-21C1.57 0 0 1.57 0 3.5v21C0 26.43 1.57 28 3.5 28H14v-9.625h-3.5V14H14v-3.5c0-2.9 2.35-5.25 5.25-5.25h3.5v4.375H21c-.966 0-1.75-.091-1.75.875V14h4.375l-1.75 4.375H19.25V28h5.25c1.93 0 3.5-1.57 3.5-3.5v-21C28 1.57 26.43 0 24.5 0z" fill="#55A630"/></svg></svg>